<?xml version="1.0" encoding="utf-8"?>
<!-- Generator: Adobe Illustrator 21.1.0, SVG Export Plug-In . SVG Version: 6.00 Build 0)  -->
<svg xmlns="http://www.w3.org/2000/svg" xmlns:xlink="http://www.w3.org/1999/xlink" version="1.1" id="Layer_1" x="0px" y="0px" viewBox="0 0 128 128" style="enable-background:new 0 0 128 128;" xml:space="preserve" width="64px" height="64px">

<g>
	<g>
		<path d="M108.9,108.9L108.9,108.9c-2.3,2.3-6.1,2.3-8.5,0L87.7,96.2c-2.3-2.3-2.3-6.1,0-8.5l0,0    c2.3-2.3,6.1-2.3,8.5,0l12.7,12.7C111.2,102.8,111.2,106.6,108.9,108.9z" style="fill:#FFFFFF;"/>
	</g>
	<g>
		<ellipse transform="matrix(0.7071 -0.7071 0.7071 0.7071 -21.6787 52.337)" cx="52.3" cy="52.3" rx="35" ry="35" style="fill:#FFFFFF;"/>
	</g>
	<g>
		<ellipse transform="matrix(0.7071 -0.7071 0.7071 0.7071 -21.6787 52.337)" cx="52.3" cy="52.3" rx="35" ry="35" style="fill:#FFFFFF;"/>
	</g>
	<g>
		<path d="M52.3,84.3c-1.7,0-3-1.3-3-3s1.3-3,3-3c6.9,0,13.5-2.7,18.4-7.6c6.4-6.4,9-15.5,6.9-24.4    c-0.4-1.6,0.6-3.2,2.2-3.6c1.6-0.4,3.2,0.6,3.6,2.2C86,55.8,82.9,67.1,75,75C68.9,81,60.9,84.3,52.3,84.3z" style="fill:#71C2FF;"/>
	</g>
	<g>
		<path d="M73,35c-0.8,0-1.5-0.3-2.1-0.9L70.7,34c-1.2-1.2-1.2-3.1,0-4.2c1.2-1.2,3.1-1.2,4.2,0l0.2,0.2    c1.2,1.2,1.2,3.1,0,4.2C74.5,34.7,73.8,35,73,35z" style="fill:#71C2FF;"/>
	</g>
	<g>
		<path d="M52.3,90.3c-9.7,0-19.5-3.7-26.9-11.1c-14.8-14.8-14.8-38.9,0-53.7c14.8-14.8,38.9-14.8,53.7,0h0    C94,40.3,94,64.4,79.2,79.2C71.8,86.6,62.1,90.3,52.3,90.3z M52.3,20.4c-8.2,0-16.4,3.1-22.6,9.4c-12.5,12.5-12.5,32.8,0,45.3    C42.2,87.4,62.5,87.4,75,75c12.5-12.5,12.5-32.8,0-45.3C68.7,23.5,60.5,20.4,52.3,20.4z" style="fill:#444B54;"/>
	</g>
	<path d="M111,98.3L98.3,85.6c-1.7-1.7-4-2.6-6.4-2.6c-1.4,0-2.7,0.3-3.9,0.9l-2.5-2.5c-1.2-1.2-3.1-1.2-4.2,0   c-1.2,1.2-1.2,3.1,0,4.2l2.5,2.5c-0.6,1.2-0.9,2.5-0.9,3.9c0,2.4,0.9,4.7,2.6,6.4L98.3,111c1.8,1.8,4.1,2.6,6.4,2.6   s4.6-0.9,6.4-2.6l0,0C114.5,107.5,114.5,101.8,111,98.3z M106.8,106.8c-1.2,1.2-3.1,1.2-4.2,0L89.8,94.1c-0.6-0.6-0.9-1.3-0.9-2.1   s0.3-1.6,0.9-2.1c0.6-0.6,1.3-0.9,2.1-0.9s1.6,0.3,2.1,0.9l12.7,12.7C108,103.7,108,105.6,106.8,106.8z" style="fill:#444B54;"/>
</g>
</svg>
